<?xml version="1.0" standalone="no"?>
<!DOCTYPE svg PUBLIC "-//W3C//DTD SVG 1.1//EN" "http://www.w3.org/Graphics/SVG/1.1/DTD/svg11.dtd" >
<svg xmlns="http://www.w3.org/2000/svg" xmlns:svg="http://www.w3.org/2000/svg" xmlns:xlink="http://www.w3.org/1999/xlink" viewBox="0 0 1024 1024"><path d="M211.74 443.07Q148.48 485.57 225.33 475.03Q221.59 478.09 256.64 464.76Q266.18 463.51 380.43 465.53Q452.36 446.68 535.49 458.29Q631.66 455.63 692.95 444.38Q660.47 458 667.88 483.15Q716.03 476.59 734 454.56Q735.25 499.04 722.54 507.6Q699.77 607.74 694.99 619.7L703.77 853.56L677.71 853.65Q662.19 805.05 646.42 807.3Q647.04 798.87 562.85 850.66Q539.61 805.63 410.86 806.76Q374.28 801.91 315.92 793.13Q249.19 817.59 190.63 820.16Q225.78 828.32 210.52 793.53Q200.29 807.93 189.21 701.66Q186.38 636.26 175.55 561.56Q142.79 561.47 181.75 488.39Q144.37 484.29 207.66 513.32ZM27.12 368.48Q55.1 383.37 127.14 342.77Q171.06 377.44 287.92 318.07L396.04 354L390.25 304.35Q385.55 324.15 412.05 252Q374.27 302.6 404.87 200.83V167.08H226.32L219.52 179.56Q260.24 221.34 267.71 269.36Q235.04 218.89 219.1 232.95Q222.85 221.86 194.89 235.03Q181.23 289.04 240.61 270.2Q153.64 350.35 137.86 337.41Q176.65 350.29 127.7 315.29Q137.44 296.46 155.28 269.92Q97.29 306.87 174.96 258.59Q122.58 282.8 171.84 265.03Q111.67 283.48 169.54 251.26Q179.89 211.44 139.94 157.43Q180.48 128.4 232.01 130.37Q178.71 113.75 240.6 85.15Q249.27 65.61 204.09 32.13Q272.59 62.43 266.96 -0.12Q301.46 38.81 291.9 51.86Q280.48 43.11 326.55 10.31Q294.19 24.8 287.01 48.93Q304 52.75 286.83 101.17V87.96H370.7V64.46Q414.75 4.4 405.44 -3.44Q426.89 4.61 445.64 48.95Q426.06 24.39 459.01 102.86L481.91 133.98L569.56 99.61Q594.69 127.89 586.4 94.9Q598.2 111.91 649.79 117.01Q678.22 99.11 656.24 149.45Q654.4 141.69 645.7 122.36Q639.67 172.72 613.56 178.12Q617.87 209.21 634.66 181.36Q594.62 218.25 562.76 177.88H487.92L459.64 248.67L493.54 339.44L596.52 370.46Q723.1 355.5 750.55 315.31Q776.14 358 824.97 364.3Q807.57 347.86 830.1 350.64Q791.97 366.11 829.15 347.75Q836.64 417.06 837.82 382.34Q798.44 373.88 778.28 422.61Q775.45 412.69 728.34 438.84Q648.74 418.57 456.28 449.5Q235.85 426.06 127.42 455.5Q80.08 410.45 40.88 395.21Q72.82 368.09 56.08 366.04Q63.49 432.29 79.22 362.35Q16.62 395.5 84.93 418.34ZM227.85 598.07Q231.07 577.77 235.66 587.08Q246.29 611.66 227.31 653.33Q262.56 692.4 261.95 672.55Q272.91 768.06 260.08 711.12V773.64H595.02V711.69Q661.9 705.24 622.45 659.26Q647.65 627.91 605.49 615.51L659.68 530.56L609.56 532.53Q607.34 561.24 551.79 521.36Q483.84 510.5 412.64 495.43H246.29Z" fill="black"></path></svg>