<?xml version="1.0" standalone="no"?>
<!DOCTYPE svg PUBLIC "-//W3C//DTD SVG 1.1//EN" "http://www.w3.org/Graphics/SVG/1.1/DTD/svg11.dtd" >
<svg xmlns="http://www.w3.org/2000/svg" xmlns:svg="http://www.w3.org/2000/svg" xmlns:xlink="http://www.w3.org/1999/xlink" viewBox="0 0 1024 1024"><path d="M258.5 555.5Q262.5 546.5 275.0 544.0Q287.5 541.5 323.5 539.5Q371.5 537.5 440.5 537.5Q500.5 537.5 620.0 540.0Q739.5 542.5 767.5 548.5Q775.5 550.5 780.5 554.0Q785.5 557.5 787.5 560.5Q789.5 566.5 789.5 615.0Q789.5 663.5 787.5 733.5L784.5 897.5L764.5 908.5Q755.5 915.5 725.0 916.0Q694.5 916.5 668.5 916.5Q617.5 916.5 526.5 915.5Q433.5 913.5 368.5 912.0Q303.5 910.5 296.5 906.5Q287.5 906.5 283.0 885.0Q278.5 863.5 269.5 780.5Q258.5 676.5 257.0 640.0Q255.5 603.5 255.5 589.5Q255.5 562.5 258.5 555.5ZM130.5 460.5Q134.5 442.5 175.0 436.0Q215.5 429.5 332.5 425.5L481.5 422.5L478.5 398.5Q476.5 388.5 475.5 366.0Q474.5 343.5 474.5 319.5V262.5H337.5L325.5 289.5Q319.5 301.5 315.0 314.0Q310.5 326.5 310.5 334.5Q307.5 341.5 301.0 352.0Q294.5 362.5 285.5 373.5Q265.5 397.5 255.5 399.0Q245.5 400.5 243.5 400.5Q228.5 400.5 218.5 382.5Q216.5 377.5 216.5 371.5Q216.5 366.5 218.5 356.5Q220.5 346.5 233.5 316.5Q242.5 294.5 255.0 260.5Q267.5 226.5 280.5 195.5Q290.5 164.5 299.5 142.0Q308.5 119.5 312.5 114.5Q319.5 107.5 333.0 107.5Q346.5 107.5 359.5 116.5Q366.5 121.5 368.5 129.0Q370.5 136.5 370.5 148.5Q370.5 153.5 370.5 159.5V191.5H474.5V163.5Q478.5 114.5 493.5 114.0Q508.5 113.5 509.5 113.5Q537.5 113.5 546.5 161.5L548.5 188.5L625.5 191.5Q659.5 193.5 686.0 196.5Q712.5 199.5 719.5 200.5Q735.5 206.5 737.0 215.5Q738.5 224.5 738.5 227.5Q738.5 240.5 726.5 251.5Q719.5 260.5 702.5 263.0Q685.5 265.5 631.5 265.5H550.5L553.5 339.5L555.5 415.5L706.5 418.5Q802.5 420.5 835.5 423.0Q868.5 425.5 877.5 433.5Q895.5 443.5 897.5 452.5Q899.5 461.5 899.5 464.5Q899.5 474.5 890.5 483.5Q890.5 483.5 890.5 484.5Q890.5 492.5 826.5 494.5Q762.5 496.5 510.5 497.5Q289.5 497.5 211.0 497.0Q132.5 496.5 132.5 490.5Q125.5 483.5 125.0 481.0Q124.5 478.5 124.5 477.5Q124.5 472.5 130.5 460.5ZM328.5 652.5Q330.5 670.5 334.0 697.5Q337.5 724.5 341.5 748.5Q344.5 771.5 347.5 792.0Q350.5 812.5 350.5 821.5V839.5H713.5V818.5Q713.5 807.5 714.5 777.0Q715.5 746.5 717.5 708.5L721.5 620.5L695.5 616.5Q683.5 614.5 627.5 614.0Q571.5 613.5 497.5 613.5H325.5Z" fill="black"></path></svg>